<?xml version="1.0" encoding="UTF-8"?>
<svg id="Capa_2" data-name="Capa 2" xmlns="http://www.w3.org/2000/svg" viewBox="0 0 758.98 623.68">
  <defs>
    <style>
      .cls-1 {
        fill: #fff;
      }

      .cls-2 {
        letter-spacing: .12em;
      }

      .cls-3 {
        letter-spacing: .12em;
      }

      .cls-4 {
        font-family: Barlow-MediumItalic, Barlow;
        font-size: 23.19px;
        font-style: italic;
        font-weight: 500;
      }

      .cls-5 {
        letter-spacing: .11em;
      }

      .cls-6 {
        fill: #18403e;
      }

      .cls-7 {
        fill: #472307;
      }

      .cls-8 {
        letter-spacing: .13em;
      }

      .cls-9 {
        letter-spacing: .09em;
      }

      .cls-10 {
        letter-spacing: .12em;
      }
    </style>
  </defs>
  <g id="Capa_1-2" data-name="Capa 1">
    <circle class="cls-1" cx="371.93" cy="164.68" r="164.68"/>
    <g>
      <g>
        <path class="cls-1" d="M59.78,512.57c-35.02,0-56.61-16.77-59.23-45.99L0,460.45h37.21l.89,4.53c2.13,10.82,9.9,17.02,21.29,17.02,7.5,0,15.57-3.34,15.57-10.69,0-5.67-1.67-11.6-21.54-16.28-24.66-5.95-47.46-15.5-47.46-44.85,0-25.21,21.85-43.5,51.94-43.5s49.86,16.63,53.4,45.64l.77,6.31h-37.81l-.57-4.99c-1.26-11.03-6.73-16.39-16.73-16.39-5.73,0-12.56,1.7-12.56,9.75,0,5.79,1.71,10.63,23.24,15.72,30.66,7.06,45.58,22.1,45.58,45.97,0,13.18-5.9,24.81-16.62,32.78-9.62,7.15-22.7,11.09-36.83,11.09h0Z"/>
        <path class="cls-1" d="M169.09,512.57c-17.48,0-32.15-5.77-42.42-16.7-9.78-10.41-14.96-24.73-14.96-41.42,0-35.31,22.52-58.13,57.37-58.13s57.37,22.82,57.37,58.13c0,16.69-5.17,31.01-14.96,41.42-10.27,10.92-24.94,16.7-42.42,16.7h.02ZM169.09,425.76c-17.43,0-19.32,20.06-19.32,28.69s1.89,28.69,19.32,28.69,19.32-20.06,19.32-28.69-1.89-28.69-19.32-28.69Z"/>
        <path class="cls-1" d="M232.1,509.95v-111h10.32c-7.11-2.81-11.63-9.37-11.63-17.82,0-11.19,8.36-19.32,19.87-19.32s19.87,8.13,19.87,19.32c0,8.44-4.51,15-11.63,17.82h10.32v111h-37.13Z"/>
        <path class="cls-1" d="M308.6,511.26c-21.41,0-26.5-12.42-26.99-22.89-.39-4.7-.39-9.49-.39-16.11v-111.38h37.13v110.82c0,3.77,0,6.28.17,8.67.05.44.11.73.16.92.39.11,1.25.27,2.94.27.74,0,1.62-.03,2.57-.09l5.98-.38v28.84l-5,.56c-4.88.55-9.99.78-16.56.78v-.02Z"/>
        <polygon class="cls-1" points="370.66 509.95 370.66 400.82 326.78 400.82 326.78 369.33 451.66 369.33 451.66 400.82 407.78 400.82 407.78 509.95 370.66 509.95"/>
        <path class="cls-1" d="M487.86,512.57c-15.6,0-28.92-5.03-38.51-14.54-10.26-10.17-15.68-25.11-15.68-43.21,0-34.45,23.14-58.51,56.25-58.51,16.09,0,29.6,5.87,39.09,17,8.53,10.01,13.22,23.88,13.22,39.06,0,2.56,0,5.74-.41,9.44l-.5,4.44h.76l-1.49,6.83c-5.39,24.72-25.1,39.49-52.75,39.49h0ZM471.75,466.82c2.72,14.31,10.2,16.31,16.67,16.31,8.48,0,14.04-4.42,15.26-12.12l.66-4.19h-32.59ZM503.31,438.7c-2.9-11.46-9.5-12.94-14.52-12.94-3.14,0-11.87,0-15.76,12.94h30.29Z"/>
        <path class="cls-1" d="M595.29,512.57c-15.44,0-28.58-5.05-38.02-14.61-9.97-10.11-15.24-24.89-15.24-42.76s5.65-32.72,16.32-43.41c9.98-9.98,23.89-15.48,39.18-15.48,28.38,0,48.95,17.59,51.17,43.77l.52,6.1h-36.38l-.79-4.69c-2.36-13.96-9.3-15.75-15.08-15.75-14.68,0-16.88,17.39-16.88,27.75,0,13.51,2.9,29.62,16.69,29.62,7.78,0,12.74-4.87,14.74-14.47l.93-4.47h37.15l-1.16,6.6c-4.59,26.16-24.47,41.78-53.17,41.78l.02.02Z"/>
        <path class="cls-1" d="M721.86,509.95v-58.32c0-4.04,0-8.6-.36-13.46-.62-8.59-4.78-12.42-13.51-12.42-14.67.22-16.88,20.78-16.88,33v51.18h-37.13v-150h37.13v43.53c7.43-4.94,15.55-7.15,26.06-7.15,23.6,0,38.55,11.99,41.02,32.9.58,5.18.78,10.28.78,18.85v61.88h-37.13Z"/>
      </g>
      <g>
        <g>
          <path class="cls-7" d="M105.71,413.01h-26.44c-1.5-13.13-8.81-21.38-22.31-21.38-10.32,0-18.19,4.87-18.19,15.38s6.93,16.31,27.56,21.19c28.5,6.56,41.25,19.68,41.25,40.5,0,24.38-22.31,38.25-47.81,38.25-30.93,0-51.19-13.69-53.62-40.88h26.44c2.81,14.25,13.69,21.56,26.82,21.56,11.82,0,21.19-6.38,21.19-16.31,0-10.87-6.75-17.25-25.87-21.75-26.44-6.38-43.13-15.57-43.13-39.38s21.56-37.88,46.31-37.88c30.93,0,45,17.63,47.81,40.69h0Z"/>
          <path class="cls-7" d="M220.85,454.45c0,30.19-18.56,52.5-51.75,52.5s-51.75-22.31-51.75-52.5,18.56-52.5,51.75-52.5,51.75,22.12,51.75,52.5ZM194.03,454.45c0-21.56-9.38-34.32-24.94-34.32s-24.94,12.75-24.94,34.32,9.38,34.32,24.94,34.32,24.94-12.94,24.94-34.32Z"/>
          <path class="cls-7" d="M264.91,381.13c0,8.25-5.81,13.69-14.25,13.69s-14.25-5.44-14.25-13.69,5.81-13.69,14.25-13.69,14.25,5.63,14.25,13.69ZM237.72,504.33v-99.75h25.87v99.75h-25.87Z"/>
          <path class="cls-7" d="M312.72,471.71c0,3.94,0,6.56.19,9.19.57,5.06,2.81,6.75,11.63,6.19v17.82c-5.06.57-10.13.75-15.93.75-12.75,0-20.81-4.69-21.38-17.63-.38-4.5-.38-9.19-.38-15.75v-105.75h25.87v105.19h0Z"/>
        </g>
        <g>
          <path class="cls-6" d="M402.16,395.2v109.13h-25.87v-109.13h-43.88v-20.25h113.63v20.25h-43.87Z"/>
          <path class="cls-6" d="M536.23,461.2h-70.88c1.69,21,11.06,27.56,23.07,27.56,11.06,0,19.13-6.19,20.81-16.88h25.87c-5.06,23.26-23.81,35.06-47.25,35.06-27.37,0-48.56-17.06-48.56-52.13,0-30.57,20.06-52.88,50.63-52.88s46.69,23.26,46.69,50.44c0,2.44,0,5.44-.38,8.81h0ZM466.1,444.32h43.88c-1.69-15.75-8.81-24.19-21.19-24.19s-20.44,7.69-22.69,24.19Z"/>
          <path class="cls-6" d="M643.1,440.57h-25.5c-2.44-14.44-9.94-20.44-20.63-20.44-13.13,0-22.5,10.69-22.5,33.37,0,24.75,9.38,35.25,22.31,35.25,10.13,0,17.62-6.38,20.25-18.94h25.87c-4.32,24.56-22.69,37.13-47.62,37.13-27.18,0-47.62-17.25-47.62-51.75s22.5-53.25,49.87-53.25,43.69,16.5,45.57,38.62h0Z"/>
          <path class="cls-6" d="M753.36,448.07v56.25h-25.87v-52.69c0-4.13,0-8.81-.38-13.88-.75-10.5-6.57-17.63-19.13-17.63-12.56.19-22.5,10.87-22.5,38.62v45.57h-25.87v-138.76h25.87v55.12l7.69-11.82c7.12-5.06,14.44-6.93,24-6.93,21.19,0,33.37,10.5,35.44,27.94.57,5.06.75,10.13.75,18.19v.02Z"/>
        </g>
      </g>
    </g>
    <text class="cls-4" transform="translate(11.82 574.81) scale(2.15 1.99)"><tspan class="cls-8" x="0" y="0">SOL</tspan><tspan class="cls-10" x="48.85" y="0">U</tspan><tspan class="cls-8" x="65.97" y="0">CIO</tspan><tspan class="cls-2" x="108.3" y="0">N</tspan><tspan class="cls-8" x="126.11" y="0">ES </tspan><tspan class="cls-5" x="166.13" y="0">A</tspan><tspan class="cls-8" x="182.9" y="0">GRONÓMI</tspan><tspan class="cls-3" x="296.12" y="0">C</tspan><tspan class="cls-9" x="312.58" y="0">A</tspan><tspan class="cls-8" x="328.79" y="0">S</tspan></text>
    <g>
      <g>
        <path class="cls-6" d="M371.93,4.18c-88.65,0-160.5,70.83-160.5,158.22,0,2.44.05,4.85.17,7.26.57,12.33,2.57,24.3,5.83,35.74,1.97,6.45,5.14,7.88,12.31,5.54,34.07-11.59,79.88-19.28,130.95-20.91h0c4.36-.24,8.01-3.3,9.17-7.47.17-.59.45-1.86.45-1.86h.32c.01-.19.01-.38.01-.56h.01v-8.48s-.07-3.38-1.73-3.97l-7.53-3.79s-2.68-1.9-8.99.52c0,0-20.3,10.86-35.06.53,0,0-9.83-6.11-14.96-13.16-5.14-7.06-11.01-34.01-11.01-34.01,0,0,15.61-.75,20.31-2.13,0,0,1.17-.32,6.73-.74,0,0,7.05-.74,16.24,1.16,0,0,16.88,2.74,22.65,20.33,0,0,3.1,10.01,2.89,19.81,0,0,.42,3.9,3.74,5.06l5.02,2.43s1.64,0,1.67-2.85v-19.81s1.65-13.6-9.15-20.44c0,0-10.15-6.22-16.99-15.18,0,0-8.26-12.78-.31-31.29,0,0,5.81-13.31,14.65-21.87,0,0,8.98-6.88,14.39-15.03,0,0,1.56,5.62,12.4,15.03,0,0,9.12,8.01,15.4,21.35,0,0,8.41,14.25,1.71,31.19,0,0-4.69,8.99-16.38,16.3,0,0-10.44,5.48-10.42,20.37v19.38s-.7,4.91,2.58,2.82c0,0,5.14-2.95,7.12-6.18,0,0,.28-12.78,2.28-19.53,0,0,1.56-11.81,16.24-18.13,0,0,10.68-4.22,22.52-4.35,0,0,9.27.56,16.53,1.54,0,0,3.99,1.36,11.97.75,0,0-2,4.02-2.14,8.51,0,0-.7,8.99-3.84,15.03,0,0-6.27,19.25-25.94,26.97,0,0-14.25,4.22-33.2-4.78,0,0-2.14-.84-4.41.14l-6.84,3.65s-2.88.98-2.86,4.79v7.35s-.03,2.26.63,4.83c0,0,0,0,.01.02,1.7,3.2,5.01,5.39,8.81,5.41h0c49.18.33,94.28,6.26,129.83,15.96,8.26,1.92,10.47,1.29,12.81-6.16,2.91-11.91,4.44-24.32,4.44-37.1,0-87.38-71.85-158.22-160.5-158.22Z"/>
        <g>
          <path class="cls-7" d="M509.96,211.44h0c-35.75-9.52-80.98-15.21-130.19-15.21h-.5c-.88.15-1.55.94-1.55,1.88,0,.62.29,1.18.74,1.52h-.11l5.67,3.22h0v7.46l20.29,11.54,3.63,2.07,18.55,10.55v7c1.43.26,2.52,1.49,2.52,2.98,0,1.67-1.37,3.04-3.08,3.04s-3.07-1.36-3.07-3.04c0-1.48,1.08-2.72,2.52-2.98v-6.02l-18.13-10.31-.02-.02v17.01c1.36.31,2.38,1.51,2.38,2.95,0,1.68-1.37,3.04-3.08,3.04s-3.07-1.35-3.07-3.04c0-1.43,1-2.63,2.37-2.95v-16.27l-21.81-12.42v31l23.2,13.21v-.02s22.19,12.62,22.19,12.62l-.03.05h.03v6.1c1.42.26,2.52,1.49,2.52,2.98,0,1.67-1.38,3.04-3.08,3.04s-3.07-1.36-3.07-3.04c0-1.48,1.08-2.72,2.51-2.98v-5.18l-20.34-11.58v24.09c1.35.32,2.36,1.51,2.36,2.94,0,.36-.06.7-.18,1.02h-1.5c.22-.29.35-.63.35-1.02,0-.94-.78-1.7-1.74-1.7s-1.74.76-1.74,1.7c0,.39.13.73.35,1.02h-1.51c-.12-.32-.18-.66-.18-1.02,0-1.43,1.01-2.63,2.38-2.95v-23.34l-25.2-14.34-.07-.04v-39.84l-7.73-4.4v68.85c1.83.81,3.1,2.64,3.1,4.75,0,2.9-2.38,5.24-5.31,5.24s-5.32-2.34-5.32-5.24c0-2.17,1.33-4.02,3.24-4.82v-68.87l-7.88,4.49v39.82h-.01v.02s-25.26,14.38-25.26,14.38v23.43c1.36.32,2.38,1.52,2.38,2.96,0,.33-.05.63-.15.92h-1.46c.17-.27.27-.58.27-.92,0-.95-.77-1.71-1.74-1.71s-1.74.76-1.74,1.71c0,.34.1.65.28.92h-1.46c-.1-.29-.15-.59-.15-.92,0-1.43,1-2.64,2.37-2.96v-24.17l-20.35,11.59v5.17c1.42.26,2.51,1.49,2.51,2.98,0,1.67-1.37,3.04-3.07,3.04s-3.08-1.36-3.08-3.04c0-1.48,1.09-2.72,2.52-2.98v-6.15h.02s22.16-12.62,22.16-12.62v.02s23.22-13.22,23.22-13.22v-30.66l-21.82,12.43v15.92c1.36.32,2.37,1.51,2.37,2.95,0,1.68-1.37,3.04-3.07,3.04s-3.08-1.35-3.08-3.04c0-1.43,1.01-2.64,2.38-2.95v-16.65h-.02s-15.53,8.85-15.53,8.85v5.44c1.43.27,2.51,1.49,2.51,2.98,0,1.68-1.37,3.04-3.07,3.04s-3.08-1.35-3.08-3.04c0-1.48,1.08-2.72,2.52-2.98v-6.42l.03-.02,15.94-9.06,6.21-3.53,17.72-10.1v-7.77h0s6.53-3.73,6.53-3.73c0,0,0,0,.01,0,.21-.29.35-.64.35-1.04,0-.84-.59-1.53-1.37-1.66-51.56,1.28-97.93,8.81-132.37,20.35-7.65,3.16-9.22,6.74-6.86,12.84,9.6,22.54,24.43,42.39,42.98,58.07,27.65,23.38,63.58,37.5,102.86,37.5s74.27-14.12,102.27-37.5c20.16-16.84,36.11-38.49,45.59-63.1,3.13-7.56,1.2-9.88-8.64-13.14Z"/>
          <path class="cls-7" d="M424.25,244.43c0,.95.77,1.71,1.74,1.71s1.73-.76,1.73-1.71-.77-1.7-1.73-1.7-1.74.76-1.74,1.7Z"/>
          <path class="cls-7" d="M404.8,244.85c0,.95.77,1.71,1.74,1.71s1.73-.76,1.73-1.71-.77-1.7-1.73-1.7-1.74.76-1.74,1.7Z"/>
          <path class="cls-7" d="M317.41,242.67c0,.95.77,1.71,1.73,1.71s1.74-.76,1.74-1.71-.77-1.7-1.74-1.7-1.73.76-1.73,1.7Z"/>
          <path class="cls-7" d="M334.36,244.88c0,.95.77,1.71,1.73,1.71s1.74-.76,1.74-1.71-.77-1.7-1.74-1.7-1.73.76-1.73,1.7Z"/>
          <path class="cls-7" d="M311.97,279.47c0,.95.77,1.71,1.73,1.71s1.74-.76,1.74-1.71-.77-1.7-1.74-1.7-1.73.76-1.73,1.7Z"/>
          <path class="cls-7" d="M427.09,279.38c0,.95.77,1.71,1.73,1.71s1.74-.76,1.74-1.71-.77-1.7-1.74-1.7-1.73.76-1.73,1.7Z"/>
          <path class="cls-7" d="M368.31,275.25c0,1.61,1.31,2.9,2.93,2.9s2.94-1.29,2.94-2.9-1.31-2.89-2.94-2.89-2.93,1.29-2.93,2.89Z"/>
        </g>
      </g>
      <path class="cls-6" d="M448.37,128.21c.06.4-.22,1.04-.58,1.26-.35.22-.33.23-.75.29-.43.06-1.01-.18-1.31-.56-.11-.14-.19-.4-.24-.47s-.1.03-.18.03c-1.98-.06-3.99-.06-5.98-.05-3.71,2.7-7.43,5.37-11.15,8.06,3.6-.1,7.2-.1,10.79-.02.07,0,.08.11.17,0s.27-.53.53-.66c.26-.12.35-.24.74-.27.38-.03,1.06.22,1.28.57.21.35.22.33.28.73s-.23,1.04-.59,1.26c-.36.22-.32.22-.75.28-.43.06-.98-.17-1.32-.56-.12-.13-.07-.36-.24-.44-.17-.08.34.03-.15,0-.49-.03,1.32.02-.46,0-1.77-.01-8.36.05-11.1.04-.1,0-.3-.03-.31-.09-4.76,3.39-9.6,6.63-14.5,9.81,3.58.26,7.16.44,10.75.49.04,0,0,.1.09-.02.08-.12.3-.52.55-.64.26-.12.35-.22.73-.25s1.06.25,1.26.61c.2.36.21.33.25.74.04.41-.27,1.04-.63,1.25-.36.21-.33.22-.77.26-.44.04-.97-.21-1.29-.61-.1-.12-.05-.33-.21-.42-.16-.09.39.03-.09-.02-.48-.05,1.31.08-.45-.02s-8.33-.39-11.06-.52c-.1,0-.3-.05-.31-.11-11.87,7.65-25.1,13.21-37.59,19.74,0,.05.1.57.1.61-.07.57.12.91-.49.91-.61,0-.43-.4-.49-.97,0-.06.1-.49.1-.55-11.78-6.5-24.35-12.14-35.71-19.37-.1.07-.13.1-.26.11-3.79.26-7.59.65-11.4.75-.03,0-.05,0-.07,0-.02,0,0,0-.01,0-.11.11-.11.3-.19.42-.27.42-.84.67-1.27.64-.43-.03-.4-.05-.76-.25-.36-.2-.67-.82-.63-1.23s.05-.39.25-.74c.2-.36.88-.63,1.26-.61.38.02.46.11.72.22.25.11.47.52.55.63s.05,0,.09,0c3.55-.08,7.07-.37,10.6-.69-4.76-3.03-9.47-6.11-14.15-9.28,0,.06-.21.11-.3.11-2.68.07-9.13.33-10.87.42-1.74.09.03-.03-.45.02-.48.05.02-.08-.14,0-.17.09-.12.31-.23.44-.32.39-.85.64-1.28.59-.43-.04-.4-.06-.76-.26-.36-.21-.66-.83-.62-1.24s.06-.38.26-.73.88-.62,1.27-.59c.38.03.48.13.73.25.26.12.45.53.53.64.09.11.09,0,.15,0,3.52-.21,7.05-.32,10.58-.4-3.71-2.52-7.27-5.02-11.1-7.51,0,0,.59-.02-.21,0-.8.03-4.34.17-5.68.28-.05,0-.17-.08-.2,0-.03.07-.12.34-.22.47-.29.38-.86.64-1.29.6-.42-.04-.4-.06-.76-.26-.36-.2-.66-.83-.61-1.23s.06-.37.26-.73.88-.63,1.27-.6c.39.04.45.1.73.25.28.15.41.45.57.66.04.05.09-.06.19-.06,1.57-.06,3.16-.16,4.74-.22-1.07-.7-2.13-1.41-3.21-2.11-.45.36-1.17.57-1.69.52-.52-.05-.84-.16-1.2-.41-.76-.53-1.1-1.26-1.07-2.15.01-.43.16-.8.42-1.13.54-.72,1.31-1.08,2.22-1.03.44.02.82.15,1.18.41.9.66,1.21,1.57.97,2.64,2.18,1.44,4.37,2.88,6.53,4.35-.5-1.49-.98-2.98-1.53-4.46-.01-.03.03-.05-.02-.07-.05-.02,0,.03-.16,0-.17-.04-.41-.06-.7-.26s-.67-.82-.6-1.22c.07-.4.06-.39.27-.73s.88-.64,1.26-.6.5.08.73.25c.7.52.77,1.23.39,1.95-.08.14-.26.27-.31.33-.05.06,0,.05.02.07.65,1.86,1.28,3.72,1.9,5.59,3.67,2.45,7.39,5.08,11.02,7.43-.8-2.31-2.7-7.95-3.24-9.5-.46-1.33-.06-.24-.1-.31-.23-.38,0,0-.22-.11-.22-.11-.4-.05-.7-.27-.3-.23-.66-.83-.6-1.23s.06-.38.26-.73c.21-.35.9-.63,1.27-.59.37.04.49.08.71.24.7.51.78,1.24.41,1.95-.08.15-.25.26-.3.32s0,.03,0,.04c.69,3.71,2.2,7.2,3.63,10.67.06.14.02.2-.01.32,4.68,3.14,9.45,6.16,14.21,9.19-1.42-3.19-2.83-6.43-3.63-9.83,0-.02.03,0-.02-.02-.05-.01.03.03-.14,0-.17-.03-.4-.05-.69-.25s-.69-.82-.63-1.22c.06-.4.05-.38.25-.73.2-.35.87-.66,1.24-.62.37.04.5.07.72.23.7.51.81,1.21.44,1.95-.08.15-.29.17-.32.34,0,.02,0,0,0,.01,1.27,3.51,2.57,7.02,3.87,10.5.06.15.03.2,0,.33,9.99,6.32,21.24,12.23,31.58,17.92-.05-16.83-.52-34.52-.57-51.34-.18-.06-.26-.06-.4-.23-3.26-4.22-6.38-8.6-9.87-12.66-.01-.01.07-.03-.04-.01-.11.02-.41.12-.64.1-1.15-.11-1.97-.83-2.04-2-.03-.58.2-1.04.59-1.44.38-.4.89-.59,1.45-.6.55-.01,1.05.21,1.44.58.4.37.59.92.61,1.41.02.49-.14.77-.34,1.17,0,0,0,0,.02.02,3.22,3.84,6.22,7.85,9.22,11.86-.03-7.94-.08-15.89-.09-23.82-.18-.06-.26-.06-.4-.24-3.25-4.24-6.35-8.64-9.82-12.73-.01-.01.06-.05-.04-.03-.11.02-.39.11-.61.09-1.15-.12-1.97-.85-2.03-2.02-.03-.59.21-1.03.59-1.44.38-.4.89-.59,1.45-.6.55,0,1.04.21,1.44.59.4.37.59.92.6,1.42s-.15.8-.37,1.19c0,.01,0,0,.02.02,3.2,3.85,6.19,7.89,9.17,11.92-.01-6.25-.02-12.51,0-18.76-1.74-2.2-3.45-4.42-5.14-6.66-.03-.04.04-.1-.08-.09-.12,0-.42.13-.66.1-1.14-.12-1.95-.85-2.01-2.01-.03-.58.21-1.03.59-1.42s.88-.58,1.44-.59c.56,0,1.05.22,1.45.59s.58.91.6,1.4c.02.49-.17.79-.35,1.18-.02.03.04.03.06.07,1.32,1.8,2.72,3.58,4.1,5.35,0-3.67.01-7.34,0-11.02-1.46-.59-2.37-1.68-2.42-3.25-.03-.96.35-1.74,1-2.4.65-.66,1.5-.99,2.43-1,.93,0,1.77.35,2.44.99.67.64.98,1.5,1.01,2.39s-.45,1.82-.98,2.38c-.53.56-.86.61-1.46.89,0,1.78,0,3.58,0,5.37,1.34-1.76,2.73-3.51,4.04-5.27.08-.1.24-.08.21-.17-.13-.38-.39-.7-.35-1.19.03-.5.2-1.04.6-1.41.4-.37.89-.59,1.45-.59.56,0,1.05.2,1.45.59.4.39.58.87.6,1.43.02.55-.25,1.02-.59,1.42-.34.4-1.03.55-1.41.6-.38.05-.62-.14-.78-.12-.16.02-.05.14-.12.23-1.76,2.15-3.41,4.39-5.1,6.59,0,6.25-.01,12.49,0,18.74,3.06-3.92,6.15-7.85,9.08-11.85.06-.08.17-.08.14-.14-.16-.39-.38-.69-.35-1.18.03-.49.2-1.04.6-1.42.4-.37.89-.59,1.45-.59.56,0,1.05.2,1.45.59.4.39.59.88.6,1.43.02.55-.25,1.03-.59,1.43-.34.4-1.04.55-1.41.6-.37.04-.56-.11-.72-.11-.16,0-.06.09-.12.17-3.17,4.3-6.44,8.57-9.78,12.74-.12.15-.19.16-.35.23.01,7.92.04,15.85.08,23.77,3.06-3.92,6.12-7.86,9.05-11.87.03-.04.09-.05.07-.08-.19-.4-.37-.69-.36-1.18.02-.49.2-1.04.6-1.41.4-.37.88-.6,1.44-.59.56,0,1.05.2,1.45.59.4.39.6.87.61,1.42s-.21,1.03-.59,1.44c-.38.4-.91.56-1.44.6-.22.02-.55-.09-.66-.1-.11-.01-.05.05-.07.09-3.16,4.32-6.41,8.59-9.74,12.76-.12.15-.19.16-.34.23.07,18.7-.51,38.2-.62,56.91,11.02-5.68,22.88-11.54,33.34-18.23-.02-.13-.05-.19,0-.33,1.39-3.51,2.71-7.08,3.99-10.65,0,0,.01,0,0-.01-.03-.17-.24-.2-.32-.35-.39-.73-.27-1.45.42-1.96.23-.17.36-.2.74-.25.38-.04,1.05.25,1.26.6.21.35.19.33.26.73.06.4-.33,1.04-.63,1.25-.3.2-.51.23-.7.26-.19.03-.06-.04-.17,0-.02,0,0,0,0,.01-1.22,3.33-2.47,6.65-3.72,9.97,4.88-3.15,9.78-6.28,14.54-9.61-.03-.13-.06-.19,0-.33,1.42-3.58,3.01-7.16,3.69-10.97,0-.01.02,0,.02-.02-.01-.17-.24-.18-.32-.32-.41-.73-.32-1.44.37-1.99.22-.17.35-.21.72-.26s1.06.22,1.28.57c.22.34.2.31.28.71.08.4-.3,1.05-.58,1.26-.28.22-.53.25-.7.29-.17.04-.12,0-.17.01-.06.01-.02,0-.02.02-.71,3.53-2.03,6.94-3.44,10.25,3.75-2.67,7.48-5.36,11.21-8.06.59-1.91,1.18-3.83,1.79-5.74,0-.03.07-.01.02-.07s-.25-.18-.33-.33c-.4-.72-.33-1.45.35-2,.23-.18.35-.22.73-.29s1.06.2,1.28.55.21.33.29.74c.08.4-.28,1.06-.56,1.28-.28.22-.53.25-.7.3-.17.05-.11,0-.16.02s0,.04-.01.07c-.51,1.52-.97,3.05-1.44,4.58,2.15-1.58,4.29-3.16,6.47-4.7-.27-1.07.02-1.98.9-2.67.35-.27.73-.4,1.17-.43.9-.07,1.69.26,2.26.96.27.34.43.7.45,1.13.06.89-.27,1.62-1.01,2.16-.36.26-.68.39-1.2.45-.52.06-1.25-.11-1.71-.46-1.06.75-2.1,1.51-3.16,2.26,1.58,0,3.19.04,4.76.04.09,0,.15.09.19.04.15-.22.28-.53.55-.69.27-.16.34-.22.73-.27.39-.05,1.07.21,1.29.56.22.35.23.33.29.73Z"/>
    </g>
  </g>
</svg>